# xmcd
#
# Track frame offsets: 
#        150
#        12403
#        24424
#        36666
#        45689
#        56456
#        64974
#        75983
#        89936
#        100495
#        109213
#        126307
#        134167
#
# Disc length: 1924 seconds
#
# Revision: 0
# Processed by: cddbd v1.5.2PL0 Copyright (c) Steve Scherf et al.
# Submitted via: ExactAudioCopy v0.99pb5
#
DISCID=c107820d
DTITLE=Steve Hooker - Loco Rumble
DYEAR=1998
DGENRE=Rockabilly
TTITLE0=Vooloo letter
TTITLE1=Rockin' ace of spades
TTITLE2=You are my baby
TTITLE3=Blues stay away from me
TTITLE4=Run through the jungle
TTITLE5=Trash pickin'
TTITLE6=Midnight shift
TTITLE7=Sweet little 16
TTITLE8=Pills
TTITLE9=Cath on
TTITLE10=Run Rudolph run
TTITLE11=Rock ol' Sputnick
TTITLE12=Rocky road blues
EXTD=
EXTT0=
EXTT1=
EXTT2=
EXTT3=
EXTT4=
EXTT5=
EXTT6=
EXTT7=
EXTT8=
EXTT9=
EXTT10=
EXTT11=
EXTT12=
PLAYORDER=
